<?xml version="1.0" standalone="no"?>
<!DOCTYPE svg PUBLIC "-//W3C//DTD SVG 20010904//EN"
 "http://www.w3.org/TR/2001/REC-SVG-20010904/DTD/svg10.dtd">
<svg version="1.0" xmlns="http://www.w3.org/2000/svg"
 width="700.000000pt" height="700.000000pt" viewBox="0 0 700.000000 700.000000"
 preserveAspectRatio="xMidYMid meet">
<metadata>
Created by potrace 1.11, written by Peter Selinger 2001-2013
</metadata>
<g transform="translate(0.000000,700.000000) scale(0.100000,-0.100000)"
fill="#000000" stroke="none">
<path d="M1973 5676 c-398 -76 -704 -372 -789 -762 -20 -95 -23 -293 -5 -379
41 -197 131 -370 263 -506 48 -49 145 -129 157 -129 4 0 13 17 20 38 25 71
128 278 180 361 254 409 655 742 1091 907 41 15 77 29 78 30 10 6 -70 107
-134 170 -125 124 -275 209 -452 255 -100 27 -308 34 -409 15z"/>
<path d="M4809 5681 c-147 -27 -295 -86 -406 -162 -90 -61 -263 -243 -263
-275 0 -5 39 -24 88 -43 530 -204 994 -653 1222 -1182 27 -61 50 -113 53 -116
9 -9 120 81 176 143 116 127 187 260 238 444 27 99 24 357 -5 465 -28 103
-100 251 -163 336 -55 75 -163 180 -234 229 -70 48 -220 116 -310 140 -89 24
-314 36 -396 21z"/>
<path d="M2826 3884 c-102 -32 -171 -101 -271 -269 -86 -143 -142 -188 -283
-225 -154 -41 -235 -119 -284 -272 -38 -119 -11 -292 69 -440 46 -86 147 -182
238 -225 66 -31 92 -37 161 -41 99 -5 150 14 209 80 49 54 69 101 105 251 47
199 86 269 257 464 155 176 197 256 197 378 1 97 -25 162 -87 223 -80 78 -207
109 -311 76z"/>
<path d="M4087 3886 c-132 -37 -227 -166 -227 -308 0 -104 52 -197 212 -379
152 -172 199 -259 253 -473 39 -152 59 -199 104 -243 48 -48 97 -67 186 -71
100 -5 162 17 258 90 122 91 199 215 231 370 20 94 20 143 2 229 -35 164 -112
235 -321 297 -128 38 -180 87 -261 242 -47 91 -139 186 -215 223 -66 33 -155
42 -222 23z"/>
<path d="M3445 2395 c-130 -15 -182 -28 -250 -62 -103 -50 -155 -126 -155
-223 0 -116 52 -175 250 -283 159 -86 180 -109 180 -196 -1 -95 -41 -159 -117
-187 -70 -24 -117 -18 -255 38 -107 43 -133 50 -156 42 -22 -8 -28 -16 -30
-46 -3 -34 1 -40 45 -72 60 -44 189 -109 270 -135 295 -98 633 -50 900 126 58
39 73 69 54 109 -15 34 -57 31 -142 -11 -229 -116 -399 -68 -417 117 -9 94 22
130 202 228 178 98 229 158 229 271 0 100 -75 196 -184 234 -36 13 -306 68
-312 64 -1 -1 -51 -7 -112 -14z"/>
</g>
</svg>
